<?xml version="1.0" standalone="no"?>
<!DOCTYPE svg PUBLIC "-//W3C//DTD SVG 20010904//EN"
 "http://www.w3.org/TR/2001/REC-SVG-20010904/DTD/svg10.dtd">
<svg version="1.0" xmlns="http://www.w3.org/2000/svg"
 width="564.000000pt" height="488.000000pt" viewBox="0 0 564.000000 488.000000"
 preserveAspectRatio="xMidYMid meet">

<g transform="translate(0.000000,488.000000) scale(0.100000,-0.100000)"
fill="#000000" stroke="none">
<path d="M1748 4326 c-129 -46 -354 -179 -523 -311 -164 -128 -300 -282 -368
-420 -61 -122 -62 -131 -62 -470 0 -303 -1 -312 -27 -405 -14 -52 -38 -124
-52 -160 -39 -94 -44 -150 -17 -193 60 -98 212 -67 384 78 43 37 80 65 83 63
10 -10 34 -266 34 -363 1 -137 10 -177 65 -290 35 -71 72 -121 171 -235 273
-313 325 -432 349 -800 9 -136 19 -222 30 -254 77 -224 313 -306 565 -198 l45
19 40 -34 c94 -82 204 -116 365 -116 169 1 267 31 356 107 l40 34 74 -25 c240
-80 443 -1 520 204 18 47 24 92 31 243 12 251 35 353 118 506 54 100 180 267
252 334 68 62 177 238 199 319 6 24 11 86 12 139 0 94 31 398 41 408 3 3 41
-24 84 -61 99 -83 186 -128 263 -133 52 -4 60 -2 93 28 58 50 58 79 3 239 -72
213 -77 253 -74 576 l2 280 -27 73 c-89 246 -313 473 -690 700 -64 38 -151 84
-194 103 -68 29 -89 33 -158 32 -84 -1 -221 -29 -335 -69 -73 -25 -87 -25
-335 10 -143 20 -416 20 -565 0 -261 -35 -256 -35 -349 -7 -145 42 -282 71
-346 72 -16 0 -60 -10 -97 -23z m272 -91 c36 -8 97 -24 135 -36 96 -29 214
-35 290 -15 33 9 141 21 240 28 179 11 333 2 545 -32 95 -15 144 -11 251 20
138 40 274 63 324 55 52 -8 194 -75 325 -155 264 -159 455 -336 554 -512 71
-128 70 -119 70 -473 1 -353 -1 -337 73 -553 37 -108 43 -135 33 -147 -42 -50
-216 46 -337 185 -94 107 -155 225 -188 355 -41 166 -59 180 -370 290 -104 37
-230 87 -280 112 l-90 44 40 -37 c59 -53 152 -104 315 -173 227 -97 280 -140
295 -239 11 -72 60 -198 106 -271 l42 -66 -22 -180 c-11 -99 -21 -232 -21
-296 0 -137 -13 -190 -71 -280 -43 -67 -61 -89 -163 -203 -152 -171 -225 -283
-281 -432 -18 -46 -34 -86 -37 -89 -3 -3 -11 53 -18 126 -9 94 -10 160 -3 232
13 142 5 148 -28 21 -28 -109 -35 -295 -19 -527 11 -150 11 -213 2 -303 -14
-129 -22 -158 -60 -197 -134 -143 -411 -78 -717 166 l-85 68 0 114 0 114 63
42 c88 60 217 193 250 258 60 121 20 211 -112 257 -124 43 -370 44 -496 3 -81
-27 -139 -77 -149 -131 -19 -101 90 -254 267 -375 l67 -47 0 -120 0 -121 -60
-49 c-280 -226 -527 -305 -683 -219 -39 22 -58 41 -74 74 -32 65 -47 198 -39
369 3 80 9 210 12 290 7 150 -2 242 -33 353 -8 31 -18 57 -22 57 -3 0 -6 -89
-6 -198 0 -108 -4 -210 -8 -227 -8 -29 -10 -26 -41 56 -61 160 -127 257 -339
499 -70 80 -108 134 -134 189 -35 74 -36 80 -43 231 -4 85 -15 227 -25 315
l-19 160 42 70 c49 83 85 177 103 264 20 105 74 149 282 235 118 49 220 100
287 146 95 64 87 72 -21 21 -57 -27 -178 -75 -269 -106 -288 -99 -334 -134
-369 -289 -37 -160 -122 -301 -260 -428 -108 -100 -250 -159 -268 -111 -4 9
14 77 40 152 25 75 51 168 58 206 13 74 17 270 9 495 -4 127 -3 140 22 208 90
248 379 516 771 714 45 22 98 47 117 54 40 16 131 12 230 -11z m1030 -2750
c36 -11 68 -31 94 -56 41 -42 44 -61 4 -35 -90 59 -315 84 -460 52 -130 -29
-197 -88 -199 -173 l-1 -38 -13 30 c-23 50 -19 119 10 153 29 34 102 68 177
81 82 15 323 6 388 -14z m-160 -895 c31 -25 88 -67 128 -94 40 -26 72 -50 72
-52 0 -3 -29 -19 -65 -35 -90 -42 -184 -56 -282 -41 -73 12 -183 56 -189 77
-2 6 20 24 49 42 29 17 88 61 132 96 44 35 85 62 90 59 6 -3 35 -27 65 -52z"/>
<path d="M2389 2975 c19 -22 46 -64 60 -95 24 -51 26 -65 25 -187 0 -73 1
-133 3 -133 2 0 17 28 33 63 42 88 42 180 0 253 -28 50 -77 97 -130 124 -22
12 -21 9 9 -25z"/>
<path d="M3217 2975 c-119 -88 -154 -210 -97 -340 41 -92 45 -86 45 62 0 157
12 196 80 272 45 50 36 52 -28 6z"/>
<path d="M1877 2733 c-19 -18 -6 -75 26 -109 28 -31 42 -37 84 -41 47 -5 53
-3 87 28 49 46 51 76 7 106 l-34 23 -23 -25 c-29 -32 -49 -32 -78 0 -22 24
-55 33 -69 18z"/>
<path d="M3560 2719 c-40 -25 -45 -40 -26 -78 56 -107 236 -59 236 63 0 39
-43 46 -75 12 -30 -32 -49 -33 -80 -2 -24 24 -24 24 -55 5z"/>
<path d="M1780 2655 c0 -23 28 -86 48 -108 42 -46 91 -61 212 -62 82 -1 130
-6 168 -19 74 -25 77 -12 6 21 -51 23 -75 27 -174 31 -143 5 -185 24 -222 102
-23 49 -38 63 -38 35z"/>
<path d="M3835 2648 c-10 -32 -52 -85 -83 -106 -19 -13 -56 -18 -147 -22 -102
-5 -129 -10 -179 -33 -70 -32 -70 -43 -1 -21 32 11 93 17 170 18 111 1 124 3
166 28 51 30 78 65 89 115 9 37 -5 55 -15 21z"/>
</g>
</svg>
